<svg xmlns="http://www.w3.org/2000/svg" viewBox="0 0 64 64"><rect width="64" height="64" rx="15" fill="#FFFFFF"/><g transform="translate(32 32) rotate(45) scale(0.76) translate(-29.375 -25.5)"><path d="M37.25 64 L37.25 5.5" stroke="#1B2A4A" stroke-width="7.5" stroke-linecap="round" fill="none"/><path d="M25.75 7.5 L37.25 -7 L48.75 7.5 Z" fill="#1B2A4A"/><g fill="#FFFFFF" stroke="#FFFFFF" stroke-width="5.2" stroke-linejoin="round"><rect x="10" y="30" width="24" height="28" rx="5.5"/></g><g fill="#1B2A4A"><rect x="10" y="30" width="24" height="28" rx="5.5"/><path d="M15 15 L10.8 20.5 L15 25 L19.2 20.5 Z"/><path d="M22.0 6 L17.8 11.5 L22.0 16 L26.2 11.5 Z"/><path d="M29 10 L24.8 15.5 L29 20 L33.2 15.5 Z"/></g><g stroke="#1B2A4A" fill="none"><path d="M15 33 L15 22" stroke-width="3.4" stroke-linecap="round"/><path d="M22.0 33 L22.0 13" stroke-width="3.4" stroke-linecap="round"/><path d="M29 33 L29 17" stroke-width="3.4" stroke-linecap="round"/></g><rect x="10" y="36.5" width="24" height="2.6" fill="#FFFFFF"/></g></svg>